<svg width="120" height="12" viewBox="0 0 120 12" fill="none" xmlns="http://www.w3.org/2000/svg">
<path d="M0.871994 8.708H1.44799V1.448H4.54399V0.895996H0.871994V8.708Z" fill="#0d0d0d"/>
<path d="M16.448 2.216H6.03199V2.792H11.276V10.76C11.276 11.036 11.168 11.12 10.88 11.132C10.568 11.144 9.51199 11.156 8.29999 11.12C8.40799 11.312 8.52799 11.564 8.57599 11.756C10.016 11.756 10.856 11.756 11.3 11.648C11.72 11.528 11.912 11.324 11.912 10.748V2.792H16.448V2.216Z" fill="#0d0d0d"/>
<path d="M28.736 2.792V2.252H24.104V1.004H23.516V2.252H19.016V5.756C19.016 7.484 18.92 9.884 17.948 11.6C18.08 11.66 18.332 11.816 18.428 11.924C19.436 10.136 19.58 7.556 19.58 5.756V2.792H28.736ZM26.024 4.856V6.416H22.664V4.856H26.024ZM26.588 6.908V4.856H28.64V4.352H26.588V3.164H26.024V4.352H22.664V3.164H22.112V4.352H20.012V4.856H22.112V6.908H26.588ZM26.828 8.348C26.276 9.128 25.448 9.728 24.464 10.184C23.492 9.716 22.7 9.104 22.184 8.348H26.828ZM27.308 7.808L27.2 7.844H20.228V8.348H22.076L21.668 8.528C22.196 9.308 22.94 9.944 23.852 10.448C22.616 10.928 21.2 11.216 19.796 11.36C19.892 11.504 20.012 11.732 20.048 11.864C21.584 11.672 23.12 11.336 24.452 10.748C25.652 11.312 27.08 11.684 28.592 11.888C28.664 11.732 28.808 11.516 28.928 11.384C27.524 11.228 26.192 10.928 25.064 10.46C26.18 9.872 27.104 9.08 27.68 8.024L27.308 7.808Z" fill="#0d0d0d"/>
<path d="M32.18 2.768L31.424 2.744C31.472 2.972 31.484 3.464 31.484 3.716C31.484 4.388 31.496 5.864 31.604 6.848C31.94 9.86 32.984 10.964 34.004 10.964C34.724 10.964 35.432 10.292 36.116 8.312L35.612 7.796C35.252 9.14 34.652 10.256 34.016 10.256C33.104 10.256 32.42 8.876 32.204 6.716C32.108 5.672 32.084 4.46 32.108 3.74C32.12 3.452 32.156 2.972 32.18 2.768ZM38.516 3.128L37.916 3.344C38.948 4.688 39.728 6.788 39.944 9.056L40.568 8.804C40.352 6.692 39.536 4.52 38.516 3.128Z" fill="#0d0d0d"/>
<path d="M44.42 2.768L43.664 2.744C43.712 2.972 43.724 3.464 43.724 3.716C43.724 4.388 43.736 5.864 43.844 6.848C44.18 9.86 45.224 10.964 46.244 10.964C46.964 10.964 47.672 10.292 48.356 8.312L47.852 7.796C47.492 9.14 46.892 10.256 46.256 10.256C45.344 10.256 44.66 8.876 44.444 6.716C44.348 5.672 44.324 4.46 44.348 3.74C44.36 3.452 44.396 2.972 44.42 2.768ZM50.756 3.128L50.156 3.344C51.188 4.688 51.968 6.788 52.184 9.056L52.808 8.804C52.592 6.692 51.776 4.52 50.756 3.128Z" fill="#0d0d0d"/>
<path d="M58.328 4.172H57.752V11.432H54.656V11.984H58.328V4.172Z" fill="#0d0d0d"/>
<path d="M73.328 9.44C73.316 8.852 73.304 7.748 73.304 7.064C74.288 6.584 75.248 6.2 76.004 5.9C76.28 5.792 76.58 5.672 76.832 5.6L76.568 4.988C76.304 5.132 76.088 5.24 75.8 5.372C75.092 5.696 74.216 6.044 73.292 6.488C73.172 5.732 72.524 5.3 71.72 5.3C71.144 5.3 70.412 5.516 69.908 5.864C70.46 5.18 70.928 4.376 71.204 3.668C72.5 3.632 73.964 3.524 75.188 3.332V2.732C74.012 2.936 72.668 3.056 71.408 3.104C71.588 2.528 71.708 2 71.792 1.628L71.156 1.58C71.12 2.024 70.976 2.6 70.796 3.116C70.496 3.128 70.208 3.128 69.92 3.128C69.416 3.128 68.612 3.092 67.964 3.008V3.632C68.624 3.668 69.356 3.692 69.884 3.692C70.1 3.692 70.34 3.692 70.58 3.68C70.22 4.508 69.5 5.828 67.784 7.532L68.324 7.94C68.72 7.472 69.068 7.04 69.404 6.728C70.004 6.2 70.712 5.828 71.564 5.828C72.224 5.828 72.692 6.164 72.74 6.764H72.728C71.324 7.496 69.968 8.348 69.968 9.668C69.968 11.06 71.324 11.372 72.932 11.372C73.904 11.372 75.14 11.3 76.112 11.18L76.124 10.544C75.08 10.712 73.844 10.808 72.968 10.808C71.696 10.808 70.568 10.688 70.568 9.608C70.568 8.696 71.528 8 72.752 7.352C72.752 8.012 72.728 8.936 72.704 9.44H73.328Z" fill="#0d0d0d"/>
<path d="M87.116 2.684V5.024C87.116 5.66 87.296 5.804 88.004 5.804H89.324C89.912 5.804 90.08 5.528 90.14 4.388C89.972 4.34 89.756 4.256 89.636 4.16C89.612 5.18 89.552 5.312 89.252 5.312H88.052C87.704 5.312 87.644 5.264 87.644 5.024V2.684H87.116ZM83.78 2.252H89.348V3.68H89.876V1.736H83.24V3.704H83.78V2.252ZM85.208 2.708C85.1 4.364 84.668 5.204 82.952 5.66C83.072 5.756 83.204 5.948 83.264 6.08C85.124 5.54 85.616 4.58 85.76 2.708H85.208ZM82.832 6.644L82.748 6.092L81.428 6.548V4.052H82.844V3.512H81.428V1.016H80.876V3.512H79.232V4.052H80.876V6.728C80.192 6.968 79.568 7.172 79.088 7.316L79.256 7.892C79.736 7.736 80.288 7.544 80.876 7.34V11.12C80.876 11.288 80.816 11.336 80.66 11.336C80.516 11.348 80.036 11.348 79.46 11.336C79.544 11.492 79.628 11.744 79.652 11.876C80.396 11.876 80.828 11.864 81.068 11.78C81.32 11.672 81.428 11.504 81.428 11.12V7.136L82.832 6.644ZM90.008 7.688V7.148H86.732V5.78H86.168V7.148H83V7.688H85.7C84.992 9.056 83.708 10.244 82.4 10.82C82.532 10.928 82.688 11.144 82.784 11.276C84.14 10.628 85.412 9.356 86.168 7.892V11.876H86.732V7.868C87.476 9.248 88.712 10.556 89.924 11.228C90.032 11.084 90.212 10.892 90.332 10.772C89.156 10.184 87.92 8.972 87.212 7.688H90.008Z" fill="#0d0d0d"/>
<path d="M96.68 8.336C95.924 8.336 95.312 7.856 95.312 6.98C95.312 6.128 95.96 5.564 96.668 5.564C97.268 5.564 97.76 5.876 97.916 6.692C97.916 7.724 97.46 8.336 96.68 8.336ZM98.192 3.224C98.204 2.804 98.204 2.444 98.216 2.216C98.216 2.084 98.24 1.724 98.252 1.628H97.52C97.544 1.736 97.58 2.036 97.58 2.216C97.592 2.432 97.604 2.804 97.604 3.236C95.708 3.26 93.452 3.344 92.18 3.38L92.192 4.016C93.692 3.884 95.804 3.812 97.616 3.788C97.616 4.328 97.628 4.868 97.628 5.252C97.364 5.096 97.04 5.012 96.656 5.012C95.624 5.012 94.724 5.912 94.724 6.992C94.724 8.192 95.576 8.888 96.62 8.888C97.1 8.888 97.544 8.696 97.844 8.312C97.508 9.62 96.464 10.484 94.64 10.916L95.192 11.444C97.88 10.616 98.576 8.924 98.576 7.292C98.576 6.716 98.456 6.212 98.216 5.828C98.204 5.276 98.204 4.496 98.192 3.788H98.612C100.34 3.788 101.336 3.8 101.96 3.836L101.972 3.236C101.456 3.236 100.196 3.224 98.612 3.224H98.192Z" fill="#0d0d0d"/>
<path d="M114.44 3.236V2.696H110.048C110.264 2.192 110.468 1.664 110.624 1.124L110.048 0.991996C109.652 2.42 108.944 3.776 108.08 4.676C108.224 4.748 108.452 4.94 108.56 5.036C109.016 4.544 109.424 3.932 109.784 3.236H114.44ZM105.776 5.348V5.084V3.56H108.584V3.008H106.58V1.04H106.016V3.008H103.748V3.56H105.248V5.084C105.248 6.968 105.08 9.488 103.568 11.564C103.724 11.66 103.928 11.792 104.024 11.9C105.38 9.98 105.704 7.796 105.764 5.9H107.564C107.48 9.584 107.36 10.868 107.144 11.168C107.072 11.288 106.964 11.312 106.772 11.312C106.58 11.312 106.064 11.3 105.512 11.252C105.608 11.408 105.656 11.648 105.668 11.792C106.172 11.828 106.688 11.84 106.976 11.816C107.276 11.804 107.468 11.732 107.636 11.504C107.936 11.108 108.02 9.788 108.116 5.672C108.128 5.576 108.128 5.348 108.128 5.348H105.776ZM114.212 5.768C113.72 6.284 112.904 6.932 112.22 7.436C112.016 6.752 111.86 6.008 111.74 5.252C112.604 4.868 113.396 4.436 113.948 4.04L113.528 3.704C112.424 4.532 110.108 5.444 108.416 5.828C108.56 5.948 108.716 6.164 108.8 6.32C109.076 6.248 109.376 6.152 109.676 6.056V11.888H110.228V5.864C110.564 5.744 110.912 5.6 111.26 5.468C111.74 8.3 112.652 10.676 114.308 11.828C114.404 11.684 114.584 11.468 114.728 11.372C113.66 10.7 112.904 9.452 112.376 7.916C113.096 7.436 113.996 6.752 114.656 6.116L114.212 5.768Z" fill="#0d0d0d"/>
<path d="M117.74 8.096C116.768 8.096 115.976 8.888 115.976 9.86C115.976 10.832 116.768 11.624 117.74 11.624C118.712 11.624 119.492 10.832 119.492 9.86C119.492 8.888 118.712 8.096 117.74 8.096ZM117.74 11.156C117.02 11.156 116.444 10.58 116.444 9.86C116.444 9.152 117.02 8.564 117.74 8.564C118.46 8.564 119.036 9.152 119.036 9.86C119.036 10.58 118.46 11.156 117.74 11.156Z" fill="#0d0d0d"/>
</svg>
